REM DIRINDEX 1\2\5,1\2\6,1\2\7,1\2\8,1\3\9,1\3\10,1\3\11,1\4\12,1\4\13,1\4\14,1\4\15,1\4\16
REM DIRNAME cjc034,folder01,folder02,folder03,folder04,folder05,folder06,folder07,folder08,folder09,folder10,folder11,folder12,folder13,folder14,folder15
TITLE ""
FILE "1200_sec01_0252_0260.mp3" MP3
  TRACK 01 AUDIO
    TITLE "0:"
    INDEX 01 00:00:00
  TRACK 02 AUDIO
    TITLE "12:cjc034_04642"
    INDEX 01 00:00:17
  TRACK 03 AUDIO
    TITLE "0:"
    INDEX 01 00:07:29
  TRACK 04 AUDIO
    TITLE "13:cjc034_04643"
    INDEX 01 00:07:62
  TRACK 05 AUDIO
    TITLE "0:"
    INDEX 01 00:10:10
  TRACK 06 AUDIO
    TITLE "14:cjc034_04644"
    INDEX 01 00:10:43
  TRACK 07 AUDIO
    TITLE "0:"
    INDEX 01 00:17:55
  TRACK 08 AUDIO
    TITLE "15:cjc034_04645"
    INDEX 01 00:18:13
  TRACK 09 AUDIO
    TITLE "0:"
    INDEX 01 00:23:28
  TRACK 10 AUDIO
    TITLE "12:cjc034_04646"
    INDEX 01 00:24:61
  TRACK 11 AUDIO
    TITLE "0:"
    INDEX 01 00:26:13
  TRACK 12 AUDIO
    TITLE "13:cjc034_04647"
    INDEX 01 00:26:46
  TRACK 13 AUDIO
    TITLE "0:"
    INDEX 01 00:29:34
  TRACK 14 AUDIO
    TITLE "14:cjc034_04648"
    INDEX 01 00:29:68
  TRACK 15 AUDIO
    TITLE "0:"
    INDEX 01 00:31:20
  TRACK 16 AUDIO
    TITLE "15:cjc034_04649"
    INDEX 01 00:31:51
  TRACK 17 AUDIO
    TITLE "0:"
    INDEX 01 00:35:31
  TRACK 18 AUDIO
    TITLE "12:cjc034_04650"
    INDEX 01 00:36:66
  TRACK 19 AUDIO
    TITLE "0:"
    INDEX 01 00:38:35
  TRACK 20 AUDIO
    TITLE "13:cjc034_04651"
    INDEX 01 00:38:69
  TRACK 21 AUDIO
    TITLE "0:"
    INDEX 01 00:41:55
  TRACK 22 AUDIO
    TITLE "14:cjc034_04652"
    INDEX 01 00:42:14
  TRACK 23 AUDIO
    TITLE "0:"
    INDEX 01 00:43:58
  TRACK 24 AUDIO
    TITLE "15:cjc034_04653"
    INDEX 01 00:44:16
  TRACK 25 AUDIO
    TITLE "0:"
    INDEX 01 00:47:70
  TRACK 26 AUDIO
    TITLE "12:cjc034_04654"
    INDEX 01 00:49:27
  TRACK 27 AUDIO
    TITLE "0:"
    INDEX 01 00:53:35
  TRACK 28 AUDIO
    TITLE "13:cjc034_04655"
    INDEX 01 00:53:66
  TRACK 29 AUDIO
    TITLE "0:"
    INDEX 01 00:55:01
  TRACK 30 AUDIO
    TITLE "14:cjc034_04656"
    INDEX 01 00:55:32
  TRACK 31 AUDIO
    TITLE "0:"
    INDEX 01 00:59:41
  TRACK 32 AUDIO
    TITLE "15:cjc034_04657"
    INDEX 01 00:59:73
  TRACK 33 AUDIO
    TITLE "0:"
    INDEX 01 01:05:73
  TRACK 34 AUDIO
    TITLE "12:cjc034_04658"
    INDEX 01 01:07:33
  TRACK 35 AUDIO
    TITLE "0:"
    INDEX 01 01:08:58
  TRACK 36 AUDIO
    TITLE "13:cjc034_04659"
    INDEX 01 01:09:16
  TRACK 37 AUDIO
    TITLE "0:"
    INDEX 01 01:11:51
  TRACK 38 AUDIO
    TITLE "14:cjc034_04660"
    INDEX 01 01:12:09
  TRACK 39 AUDIO
    TITLE "0:"
    INDEX 01 01:13:34
  TRACK 40 AUDIO
    TITLE "15:cjc034_04661"
    INDEX 01 01:13:67
  TRACK 41 AUDIO
    TITLE "0:"
    INDEX 01 01:17:73
  TRACK 42 AUDIO
    TITLE "12:cjc034_04662"
    INDEX 01 01:19:32
  TRACK 43 AUDIO
    TITLE "0:"
    INDEX 01 01:21:20
  TRACK 44 AUDIO
    TITLE "13:cjc034_04663"
    INDEX 01 01:21:51
  TRACK 45 AUDIO
    TITLE "0:"
    INDEX 01 01:24:04
  TRACK 46 AUDIO
    TITLE "14:cjc034_04664"
    INDEX 01 01:24:36
  TRACK 47 AUDIO
    TITLE "0:"
    INDEX 01 01:26:23
  TRACK 48 AUDIO
    TITLE "15:cjc034_04665"
    INDEX 01 01:26:56
  TRACK 49 AUDIO
    TITLE "0:"
    INDEX 01 01:30:34
  TRACK 50 AUDIO
    TITLE "16:cjc034_04666"
    INDEX 01 01:31:69
  TRACK 51 AUDIO
    TITLE "0:"
    INDEX 01 01:35:65
  TRACK 52 AUDIO
    TITLE "12:cjc034_04667"
    INDEX 01 01:36:66
  TRACK 53 AUDIO
    TITLE "0:"
    INDEX 01 01:39:63
  TRACK 54 AUDIO
    TITLE "13:cjc034_04668"
    INDEX 01 01:40:19
  TRACK 55 AUDIO
    TITLE "0:"
    INDEX 01 01:41:38
  TRACK 56 AUDIO
    TITLE "14:cjc034_04669"
    INDEX 01 01:41:73
  TRACK 57 AUDIO
    TITLE "0:"
    INDEX 01 01:44:70
  TRACK 58 AUDIO
    TITLE "15:cjc034_04670"
    INDEX 01 01:45:26
  TRACK 59 AUDIO
    TITLE "0:"
    INDEX 01 01:48:65
  TRACK 60 AUDIO
    TITLE "12:cjc034_04671"
    INDEX 01 01:50:21
  TRACK 61 AUDIO
    TITLE "0:"
    INDEX 01 01:51:62
  TRACK 62 AUDIO
    TITLE "13:cjc034_04672"
    INDEX 01 01:52:22
  TRACK 63 AUDIO
    TITLE "0:"
    INDEX 01 01:54:19
  TRACK 64 AUDIO
    TITLE "14:cjc034_04673"
    INDEX 01 01:54:52
  TRACK 65 AUDIO
    TITLE "0:"
    INDEX 01 01:56:16
  TRACK 66 AUDIO
    TITLE "15:cjc034_04674"
    INDEX 01 01:56:51
  TRACK 67 AUDIO
    TITLE "0:"
    INDEX 01 02:00:41
  TRACK 68 AUDIO
    TITLE "12:cjc034_04675"
    INDEX 01 02:02:01
  TRACK 69 AUDIO
    TITLE "0:"
    INDEX 01 02:03:26
  TRACK 70 AUDIO
    TITLE "13:cjc034_04676"
    INDEX 01 02:03:55
  TRACK 71 AUDIO
    TITLE "0:"
    INDEX 01 02:04:70
  TRACK 72 AUDIO
    TITLE "14:cjc034_04677"
    INDEX 01 02:05:31
  TRACK 73 AUDIO
    TITLE "0:"
    INDEX 01 02:06:54
  TRACK 74 AUDIO
    TITLE "15:cjc034_04678"
    INDEX 01 02:07:10
  TRACK 75 AUDIO
    TITLE "0:"
    INDEX 01 02:10:49
